<svg xmlns="http://www.w3.org/2000/svg" width="96" height="96" viewBox="0 0 96 96"><g transform="translate(0 -956.362)"><circle cx="48" cy="1004.362" r="48" fill="#ffa40b" fill-rule="evenodd"/><path fill="#fff" style="line-height:normal;text-indent:0;text-align:start;text-decoration-line:none;text-decoration-style:solid;text-decoration-color:#000;text-transform:none;block-progression:tb;isolation:auto;mix-blend-mode:normal" d="m 39.498775,977.36126 a 0.50005,0.50005 0 0 0 -0.492188,0.50586 l 0,0.5 -0.5,0 a 0.50005,0.50005 0 1 0 0,1 l 0.5,0 0,0.5 a 0.50005,0.50005 0 1 0 1,0 l 0,-0.5 0.5,0 a 0.50005,0.50005 0 1 0 0,-1 l -0.5,0 0,-0.5 a 0.50005,0.50005 0 0 0 -0.507812,-0.50586 z m 14.013672,1.01367 c -0.822505,0 -1.5,0.6775 -1.5,1.5 0,0.8225 0.677495,1.5 1.5,1.5 0.822505,0 1.5,-0.6775 1.5,-1.5 0,-0.8225 -0.677495,-1.5 -1.5,-1.5 z m 0,1 c 0.282065,0 0.5,0.21794 0.5,0.5 0,0.28206 -0.217935,0.5 -0.5,0.5 -0.282065,0 -0.5,-0.21794 -0.5,-0.5 0,-0.28206 0.217935,-0.5 0.5,-0.5 z m -19.263672,3.00391 c -0.359256,0.0158 -0.644506,0.11027 -0.841797,0.26562 -0.526156,0.41415 -0.540811,1.21481 -0.193359,2.36325 0.347528,1.1485 1.087363,2.6602 2.238281,4.5254 0.317972,0.5153 0.663719,1.0458 1.025391,1.586 -1.563082,2.368 -2.478515,5.201 -2.478516,8.248 7.92e-4,1.10619 0.130916,2.19029 0.367188,3.24219 -1.819765,-0.8006 -2.922285,-1.6622 -3.248047,-2.3672 -0.235767,-0.51019 -0.190681,-0.92699 0.222656,-1.45899 0.413337,-0.5319 1.251015,-1.1177 2.535156,-1.6445 l -0.404297,-0.9258 c -1.375251,0.5642 -2.349232,1.1968 -2.927734,1.9414 -0.578501,0.7447 -0.706116,1.6645 -0.328125,2.48239 0.584961,1.266 2.115389,2.3115 4.486328,3.2051 1.065659,3.3606 3.301135,6.2731 6.353516,8.1856 -0.232609,0.1827 -0.469858,0.3747 -0.697266,0.5468 -1.735033,1.313 -3.143202,2.172 -4.078125,2.5821 -0.467526,0.2052 -0.801711,0.2972 -1.041016,0.3222 -0.239359,0.025 -0.418354,0 -0.576172,-0.1211 -0.315623,-0.2353 -0.421548,-0.8778 -0.109374,-1.9316 0.312174,-1.0538 1.009878,-2.5036 2.125,-4.3184 l -1.267579,0.1602 c -1.142076,1.8586 -1.87331,3.3622 -2.210937,4.502 -0.337692,1.1399 -0.314183,1.9328 0.226562,2.3359 0.270373,0.2017 0.701573,0.2904 1.248047,0.2324 0.546474,-0.058 1.174602,-0.2539 1.837891,-0.5449 1.326457,-0.5819 2.855184,-1.5484 4.685547,-2.9336 0.174767,-0.1323 0.356135,-0.2804 0.533203,-0.418 l 0,4.9219 -1.232422,0 a 0.50005,0.50005 0 0 0 -0.5,0.5 l 0,1.6016 c -0.576714,0.2156 -1,0.7548 -1,1.3984 0,0.6435 0.423286,1.1809 1,1.3965 l 0,1.2051 c -0.576714,0.2156 -1,0.7548 -1,1.3984 0,0.6435 0.423286,1.1809 1,1.3965 l 0,1.6035 a 0.50005,0.50005 0 0 0 0.5,0.5 l 2.5,0 0,1.5 a 0.50005,0.50005 0 0 0 0.5,0.5 l 2.5,0 0,1 1,0 0,-1 4,0 0,1 1,0 0,-1 2.5,0 a 0.50005,0.50005 0 0 0 0.5,-0.5 l 0,-1.5 2.5,0 a 0.50005,0.50005 0 0 0 0.5,-0.5 l 0,-1.6035 c 0.576714,-0.2156 1,-0.753 1,-1.3965 0,-0.6436 -0.423286,-1.1828 -1,-1.3984 l 0,-1.2051 c 0.576714,-0.2156 1,-0.753 1,-1.3965 0,-0.6436 -0.423286,-1.1828 -1,-1.3984 l 0,-1.6016 a 0.50005,0.50005 0 0 0 -0.5,-0.5 l -1.232422,0 0,-4.9219 c 0.177069,0.1376 0.358435,0.2857 0.533203,0.418 1.830363,1.3852 3.359024,2.3516 4.685547,2.9336 0.663289,0.291 1.291417,0.4867 1.837891,0.5449 0.546474,0.058 0.977674,-0.031 1.248047,-0.2324 0.540755,-0.4031 0.564254,-1.196 0.226562,-2.3359 -0.337627,-1.1398 -1.068861,-2.6434 -2.210937,-4.502 l -1.267579,-0.1602 c 1.115122,1.8148 1.812826,3.2646 2.125,4.3184 0.312165,1.0538 0.20625,1.6963 -0.109374,1.9316 -0.157818,0.1177 -0.336813,0.1466 -0.576172,0.1211 -0.239305,-0.025 -0.57349,-0.117 -1.041016,-0.3222 -0.934923,-0.4101 -2.343092,-1.2691 -4.078125,-2.5821 -0.22741,-0.1721 -0.464655,-0.3641 -0.697266,-0.5468 2.665297,-1.67 4.712818,-4.0999 5.898438,-6.9278 1.550443,-0.4046 2.820298,-0.8783 3.777344,-1.4218 1.061179,-0.6027 1.779906,-1.2888 2.0625,-2.1094 0.141301,-0.4103 0.150325,-0.8429 0.04102,-1.2676 -0.109311,-0.42459 -0.336372,-0.84119 -0.666015,-1.22069 -0.659285,-0.7591 -1.703229,-1.4388 -3.148438,-2.0723 l -0.378906,0.9141 c 1.360323,0.5963 2.284442,1.2307 2.78125,1.8027 0.496808,0.57199 0.591296,1.00969 0.425781,1.49029 -0.165516,0.4807 -0.684959,1.0507 -1.630859,1.5879 -0.716934,0.4071 -1.669261,0.7932 -2.839844,1.1386 0.473027,-1.4561 0.733264,-2.9935 0.734375,-4.57419 -10e-7,-3.047 -0.915434,-5.88 -2.478516,-8.248 0.361672,-0.5402 0.707419,-1.0707 1.025391,-1.586 1.150918,-1.8652 1.890753,-3.3769 2.238281,-4.5254 0.347452,-1.14844 0.332797,-1.9491 -0.193359,-2.36325 -0.263055,-0.20714 -0.681282,-0.30491 -1.222656,-0.25391 -0.54145,0.051 -1.172771,0.24126 -1.833985,0.52735 -1.322353,0.57212 -2.842581,1.52985 -4.667968,2.90621 l 0.835937,0.2891 c 1.728704,-1.3034 3.129906,-2.1535 4.052734,-2.55273 0.461419,-0.19962 0.787992,-0.2864 1.023438,-0.3086 0.235446,-0.0222 0.414665,0.0103 0.570312,0.13282 0.311297,0.24504 0.405743,0.89949 0.08398,1.96291 -0.321759,1.0635 -1.028355,2.5202 -2.152344,4.3418 -0.116863,0.1894 -0.251528,0.3886 -0.375,0.582 -2.742169,-3.5849 -7.049652,-5.9082 -11.90625,-5.9082 -4.856598,0 -9.164081,2.3233 -11.90625,5.9082 -0.123472,-0.1934 -0.258137,-0.3926 -0.375,-0.582 -1.123989,-1.8216 -1.830585,-3.2783 -2.152344,-4.3418 -0.321758,-1.06342 -0.225359,-1.71787 0.08594,-1.96291 0.155647,-0.12253 0.334866,-0.15501 0.570312,-0.13282 0.235446,0.0222 0.562019,0.10898 1.023438,0.3086 0.922828,0.39923 2.322077,1.24933 4.050781,2.55273 l 0.837891,-0.2891 c -1.825378,-1.37636 -3.347569,-2.33409 -4.669922,-2.90621 -0.661214,-0.28609 -1.290591,-0.47631 -1.832032,-0.52735 -0.135345,-0.0127 -0.26306,-0.017 -0.382812,-0.0117 z m -5.173828,1.98828 a 0.50005,0.50005 0 0 0 -0.34961,0.85939 l 0.353516,0.3535 -0.353516,0.3535 a 0.50005,0.50005 0 1 0 0.707032,0.707 l 0.353515,-0.3535 0.353516,0.3535 a 0.50005,0.50005 0 1 0 0.707031,-0.707 l -0.353515,-0.3535 0.353515,-0.3535 a 0.50005,0.50005 0 0 0 -0.363281,-0.85939 0.50005,0.50005 0 0 0 -0.34375,0.15234 l -0.353516,0.35352 -0.353515,-0.35352 a 0.50005,0.50005 0 0 0 -0.357422,-0.15234 z m 19.923828,0.99609 c 4.66858,0 8.789081,2.288 11.332031,5.7969 -2.531973,3.7861 -6.169777,8.1722 -9.990234,12.20699 l -2.683594,0 c -3.24804,-3.43019 -6.350065,-7.10149 -8.765625,-10.45899 2.131163,-3.3306 5.855181,-5.541 10.107422,-5.541 l 0,-1 c -4.455001,0 -8.387479,2.2468 -10.730469,5.668 -0.203667,-0.293 -0.410088,-0.5887 -0.601562,-0.875 2.54295,-3.5089 6.663451,-5.7969 11.332031,-5.7969 z m 20.5,4.998 a 0.50005,0.50005 0 0 0 -0.492188,0.5059 l 0,0.5 -0.5,0 a 0.50005,0.50005 0 1 0 0,1 l 0.5,0 0,0.5 a 0.50005,0.50005 0 1 0 1,0 l 0,-0.5 0.5,0 a 0.50005,0.50005 0 1 0 0,-1 l -0.5,0 0,-0.5 a 0.50005,0.50005 0 0 0 -0.507812,-0.5059 z m -32.404297,1.6563 c 0.202951,0.2918 0.423212,0.5898 0.636719,0.8867 -1.096065,1.9053 -1.732424,4.1093 -1.732422,6.4629 l 1,0 c -2e-6,-2.0203 0.50296,-3.9203 1.382812,-5.5898 2.319565,3.1312 5.127029,6.44559 8.101563,9.58979 l -2.484375,0 0,1 2,0 0,0.7461 c -3.155607,-0.2667 -6.196169,-0.7591 -8.767578,-1.4863 -0.629644,-0.1781 -1.195257,-0.369 -1.730469,-0.5645 -0.326209,-1.1884 -0.501057,-2.4278 -0.501953,-3.69529 10e-7,-2.6998 0.77498,-5.2122 2.095703,-7.3496 z m 23.808594,0 c 1.320723,2.1374 2.095702,4.6498 2.095703,7.3496 -0.0012,1.69759 -0.314132,3.34589 -0.888672,4.88479 -0.01096,0 -0.02026,0.01 -0.03125,0.01 -2.87229,0.6912 -6.415185,1.0296 -10.080078,1.0664 l 0,-0.959 2,0 0,-1 -2.484375,0 c 3.536418,-3.73809 6.879413,-7.74189 9.388672,-11.34959 z m 11.171875,10.34959 a 0.50005,0.50005 0 0 0 -0.34961,0.8594 l 0.353516,0.3535 -0.353516,0.3535 a 0.50005,0.50005 0 1 0 0.707032,0.707 l 0.353515,-0.3535 0.353516,0.3535 a 0.50005,0.50005 0 1 0 0.707031,-0.707 l -0.353515,-0.3535 0.353515,-0.3535 a 0.50005,0.50005 0 0 0 -0.363281,-0.8594 0.50005,0.50005 0 0 0 -0.34375,0.1524 l -0.353516,0.3535 -0.353515,-0.3535 a 0.50005,0.50005 0 0 0 -0.357422,-0.1524 z m -36.185547,1.8887 c 0.353745,0.1135 0.714033,0.2255 1.097656,0.334 2.669136,0.7548 5.786884,1.2661 9.011719,1.539 l 0,1.6035 c -1.418821,1.3388 -2.812811,2.5748 -4.142578,3.6602 -2.780634,-1.6504 -4.863616,-4.1848 -5.966797,-7.1367 z m 11.109375,0.1113 0.431641,0 c 0.287187,0.2965 0.568783,0.5952 0.857421,0.8867 -0.430367,-0.021 -0.860878,-0.037 -1.289062,-0.066 l 0,-0.8203 z m 1.605469,0 0.789062,0 c -0.132446,0.1366 -0.261855,0.2805 -0.394531,0.416 -0.132676,-0.1355 -0.262085,-0.2794 -0.394531,-0.416 z m 1.96289,0 0.431641,0 0,0.9609 c -0.455002,0 -0.904843,0.01 -1.361328,-0.01 0.312398,-0.315 0.618956,-0.6343 0.929687,-0.9551 z m 11.056641,1.0215 c -1.177641,2.4652 -3.064861,4.569 -5.482422,6.0039 -1.329776,-1.0854 -2.723755,-2.3214 -4.142578,-3.6602 l 0,-1.3925 c 3.446246,-0.035 6.785022,-0.3383 9.625,-0.9512 z m -14.625,0.8125 c 0.177833,0.012 0.356908,0.017 0.535156,0.027 -0.17853,0.1757 -0.356865,0.3505 -0.535156,0.5235 l 0,-0.5508 z m 1.654297,0.084 c 0.244004,0.01 0.486354,0.029 0.730469,0.037 0.53921,0.5295 1.077216,1.0745 1.615234,1.5801 l 0,9.4609 -4,0 0,-9.4609 c 0.550845,-0.5176 1.102255,-1.0746 1.654297,-1.6172 z m 1.925781,0.057 c 0.140583,0 0.279526,-8e-4 0.419922,0 l 0,0.4121 c -0.14013,-0.1359 -0.279632,-0.2745 -0.419922,-0.4121 z m 16.919922,2.025 c -0.822505,0 -1.5,0.6775 -1.5,1.5 0,0.8225 0.677495,1.5 1.5,1.5 0.822505,0 1.5,-0.6775 1.5,-1.5 0,-0.8225 -0.677495,-1.5 -1.5,-1.5 z m -21.5,0.4356 0,8.5605 -3.267578,0 0,-5.4805 -0.169922,-0.09 c 1.114608,-0.8997 2.271979,-1.927 3.4375,-2.9902 z m 6,0 c 1.165523,1.0632 2.322886,2.0905 3.4375,2.9902 l -0.169922,0.09 0,5.4805 -3.267578,0 0,-8.5605 z m -28.5,0.5585 a 0.50005,0.50005 0 0 0 -0.492187,0.5059 l 0,0.5 -0.5,0 a 0.50005,0.50005 0 1 0 0,1 l 0.5,0 0,0.5 a 0.50005,0.50005 0 1 0 1,0 l 0,-0.5 0.5,0 a 0.50005,0.50005 0 1 0 0,-1 l -0.5,0 0,-0.5 a 0.50005,0.50005 0 0 0 -0.507813,-0.5059 z m 44,0.01 c 0.282065,0 0.5,0.2179 0.5,0.5 0,0.2821 -0.217935,0.5 -0.5,0.5 -0.282065,0 -0.5,-0.2179 -0.5,-0.5 0,-0.2821 0.217935,-0.5 0.5,-0.5 z m -26.5,8.9961 5,0 0,0 1,0 0,0 4,0 0,0 1,0 0,0 5,0 0,1 -16,0 0,-1 z m 24.5,0.998 a 0.50005,0.50005 0 0 0 -0.492188,0.5059 l 0,0.5 -0.5,0 a 0.50005,0.50005 0 1 0 0,1 l 0.5,0 0,0.5 a 0.50005,0.50005 0 1 0 1,0 l 0,-0.5 0.5,0 a 0.50005,0.50005 0 1 0 0,-1 l -0.5,0 0,-0.5 a 0.50005,0.50005 0 0 0 -0.507812,-0.51 z m -24.945312,1.002 16.890624,0 c 0.330551,0 0.554688,0.2292 0.554688,0.5 0,0.2707 -0.224137,0.5 -0.554688,0.5 l -16.890624,0 c -0.330551,0 -0.554688,-0.2293 -0.554688,-0.5 0,-0.2708 0.224137,-0.5 0.554688,-0.5 z m -11.041016,0.012 c -0.822505,0 -1.5,0.6775 -1.5,1.5 0,0.8225 0.677495,1.5 1.5,1.5 0.822505,0 1.5,-0.6775 1.5,-1.5 0,-0.8225 -0.677495,-1.5 -1.5,-1.5 z m 0,1 c 0.282065,0 0.5,0.2179 0.5,0.5 0,0.2821 -0.217935,0.5 -0.5,0.5 -0.282065,0 -0.5,-0.2179 -0.5,-0.5 0,-0.2821 0.217935,-0.5 0.5,-0.5 z m 11.486328,0.9839 16,0 0,1 -16,0 0,-1 z m -0.445312,2 16.890624,0 c 0.330551,0 0.554688,0.2292 0.554688,0.5 0,0.2707 -0.224137,0.5 -0.554688,0.5 l -16.890624,0 c -0.33055,0 -0.554688,-0.2293 -0.554688,-0.5 0,-0.2708 0.224137,-0.5 0.554688,-0.5 z m 0.445312,2 16,0 0,1 -2.449219,0 a 0.50005,0.50005 0 0 0 -0.05078,0 l -11,0 a 0.50005,0.50005 0 0 0 -0.05078,0 l -2.449219,0 0,-1 z m 3,2 10,0 0,1 -10,0 0,-1 z" color="#000" font-family="sans-serif" font-weight="400" overflow="visible" white-space="normal"/></g></svg>